<mxfile host="app.diagrams.net" agent="Mozilla/5.0 (Windows NT 10.0; Win64; x64) AppleWebKit/537.36 (KHTML, like Gecko) Chrome/127.0.0.0 Safari/537.36 OPR/113.0.0.0" version="24.7.7">
  <diagram name="Página-1" id="fQp1br2gr1LqWjWL3dtZ">
    <mxGraphModel dx="839" dy="457" grid="1" gridSize="10" guides="1" tooltips="1" connect="1" arrows="1" fold="1" page="1" pageScale="1" pageWidth="827" pageHeight="1169" math="0" shadow="0">
      <root>
        <mxCell id="0" />
        <mxCell id="1" parent="0" />
        <mxCell id="rTwqaQJfzBr80EF95pgX-3" value="" style="edgeStyle=orthogonalEdgeStyle;rounded=0;orthogonalLoop=1;jettySize=auto;html=1;" edge="1" parent="1" source="rTwqaQJfzBr80EF95pgX-1" target="rTwqaQJfzBr80EF95pgX-2">
          <mxGeometry relative="1" as="geometry" />
        </mxCell>
        <mxCell id="rTwqaQJfzBr80EF95pgX-5" value="" style="edgeStyle=elbowEdgeStyle;rounded=0;orthogonalLoop=1;jettySize=auto;html=1;" edge="1" parent="1" source="rTwqaQJfzBr80EF95pgX-1" target="rTwqaQJfzBr80EF95pgX-4">
          <mxGeometry relative="1" as="geometry" />
        </mxCell>
        <mxCell id="rTwqaQJfzBr80EF95pgX-7" value="" style="rounded=0;orthogonalLoop=1;jettySize=auto;html=1;endArrow=none;endFill=0;startArrow=block;startFill=0;strokeWidth=1;targetPerimeterSpacing=0;sourcePerimeterSpacing=0;jumpSize=6;" edge="1" parent="1" source="rTwqaQJfzBr80EF95pgX-1" target="rTwqaQJfzBr80EF95pgX-6">
          <mxGeometry relative="1" as="geometry" />
        </mxCell>
        <mxCell id="rTwqaQJfzBr80EF95pgX-1" value="Bolsista" style="shape=umlActor;verticalLabelPosition=bottom;verticalAlign=top;html=1;outlineConnect=0;" vertex="1" parent="1">
          <mxGeometry x="180" y="90" width="30" height="60" as="geometry" />
        </mxCell>
        <mxCell id="rTwqaQJfzBr80EF95pgX-2" value="Registrar, ver presença" style="whiteSpace=wrap;html=1;verticalAlign=top;" vertex="1" parent="1">
          <mxGeometry x="414" y="90" width="120" height="60" as="geometry" />
        </mxCell>
        <mxCell id="rTwqaQJfzBr80EF95pgX-4" value="Criar, editar, ver e remover horário" style="whiteSpace=wrap;html=1;verticalAlign=top;" vertex="1" parent="1">
          <mxGeometry x="414" y="10" width="120" height="60" as="geometry" />
        </mxCell>
        <mxCell id="rTwqaQJfzBr80EF95pgX-12" value="" style="edgeStyle=orthogonalEdgeStyle;rounded=0;orthogonalLoop=1;jettySize=auto;html=1;" edge="1" parent="1" source="rTwqaQJfzBr80EF95pgX-6" target="rTwqaQJfzBr80EF95pgX-11">
          <mxGeometry relative="1" as="geometry" />
        </mxCell>
        <mxCell id="rTwqaQJfzBr80EF95pgX-14" value="" style="edgeStyle=elbowEdgeStyle;rounded=0;orthogonalLoop=1;jettySize=auto;html=1;" edge="1" parent="1" source="rTwqaQJfzBr80EF95pgX-6" target="rTwqaQJfzBr80EF95pgX-13">
          <mxGeometry relative="1" as="geometry" />
        </mxCell>
        <mxCell id="rTwqaQJfzBr80EF95pgX-6" value="Técnico" style="shape=umlActor;verticalLabelPosition=bottom;verticalAlign=top;html=1;outlineConnect=0;" vertex="1" parent="1">
          <mxGeometry x="50" y="252" width="30" height="58" as="geometry" />
        </mxCell>
        <mxCell id="rTwqaQJfzBr80EF95pgX-11" value="Criar, ver e remover bolsista" style="whiteSpace=wrap;html=1;verticalAlign=top;" vertex="1" parent="1">
          <mxGeometry x="250" y="251" width="120" height="60" as="geometry" />
        </mxCell>
        <mxCell id="rTwqaQJfzBr80EF95pgX-13" value="Ver presença registrada de bolsista" style="whiteSpace=wrap;html=1;verticalAlign=top;" vertex="1" parent="1">
          <mxGeometry x="250" y="330" width="120" height="60" as="geometry" />
        </mxCell>
      </root>
    </mxGraphModel>
  </diagram>
</mxfile>
